<mxfile host="app.diagrams.net" modified="2023-04-09T19:36:54.803Z" agent="Mozilla/5.0 (Windows NT 10.0; Win64; x64) AppleWebKit/537.36 (KHTML, like Gecko) Chrome/112.0.0.0 Safari/537.36" etag="RWgLQY84SIUcgojTje59" version="21.1.5" type="google">
  <diagram name="Страница 1" id="qxFzuNHeogYuKu4RrlIB">
    <mxGraphModel grid="1" page="1" gridSize="10" guides="1" tooltips="1" connect="1" arrows="1" fold="1" pageScale="1" pageWidth="827" pageHeight="1169" math="0" shadow="0">
      <root>
        <mxCell id="0" />
        <mxCell id="1" parent="0" />
        <mxCell id="yIZuLcIrCL3NqY75PJjM-3" value="" style="edgeStyle=orthogonalEdgeStyle;rounded=0;orthogonalLoop=1;jettySize=auto;html=1;" edge="1" parent="1" source="yIZuLcIrCL3NqY75PJjM-1" target="yIZuLcIrCL3NqY75PJjM-2">
          <mxGeometry relative="1" as="geometry" />
        </mxCell>
        <mxCell id="yIZuLcIrCL3NqY75PJjM-1" value="SecondArrayWith" style="rounded=1;whiteSpace=wrap;html=1;" vertex="1" parent="1">
          <mxGeometry x="400" y="40" width="120" height="60" as="geometry" />
        </mxCell>
        <mxCell id="yIZuLcIrCL3NqY75PJjM-5" value="" style="edgeStyle=orthogonalEdgeStyle;rounded=0;orthogonalLoop=1;jettySize=auto;html=1;" edge="1" parent="1" source="yIZuLcIrCL3NqY75PJjM-2" target="yIZuLcIrCL3NqY75PJjM-4">
          <mxGeometry relative="1" as="geometry" />
        </mxCell>
        <mxCell id="yIZuLcIrCL3NqY75PJjM-2" value="string[] array 1&lt;br&gt;string array 2&lt;br&gt;int count = 0" style="shape=parallelogram;perimeter=parallelogramPerimeter;whiteSpace=wrap;html=1;fixedSize=1;" vertex="1" parent="1">
          <mxGeometry x="400" y="140" width="120" height="60" as="geometry" />
        </mxCell>
        <mxCell id="yIZuLcIrCL3NqY75PJjM-7" value="" style="edgeStyle=orthogonalEdgeStyle;rounded=0;orthogonalLoop=1;jettySize=auto;html=1;" edge="1" parent="1" source="yIZuLcIrCL3NqY75PJjM-4" target="yIZuLcIrCL3NqY75PJjM-6">
          <mxGeometry relative="1" as="geometry" />
        </mxCell>
        <mxCell id="yIZuLcIrCL3NqY75PJjM-4" value="for (int i = 0; i &amp;lt; array1.length; i++)" style="rhombus;whiteSpace=wrap;html=1;" vertex="1" parent="1">
          <mxGeometry x="350" y="240" width="220" height="80" as="geometry" />
        </mxCell>
        <mxCell id="yIZuLcIrCL3NqY75PJjM-10" style="edgeStyle=orthogonalEdgeStyle;rounded=0;orthogonalLoop=1;jettySize=auto;html=1;entryX=0.5;entryY=1;entryDx=0;entryDy=0;" edge="1" parent="1" source="yIZuLcIrCL3NqY75PJjM-6" target="yIZuLcIrCL3NqY75PJjM-8">
          <mxGeometry relative="1" as="geometry">
            <mxPoint x="170" y="400" as="targetPoint" />
            <Array as="points">
              <mxPoint x="170" y="400" />
            </Array>
          </mxGeometry>
        </mxCell>
        <mxCell id="yIZuLcIrCL3NqY75PJjM-11" style="edgeStyle=orthogonalEdgeStyle;rounded=0;orthogonalLoop=1;jettySize=auto;html=1;" edge="1" parent="1" source="yIZuLcIrCL3NqY75PJjM-6">
          <mxGeometry relative="1" as="geometry">
            <mxPoint x="460" y="220" as="targetPoint" />
            <Array as="points">
              <mxPoint x="610" y="400" />
              <mxPoint x="610" y="220" />
            </Array>
          </mxGeometry>
        </mxCell>
        <mxCell id="yIZuLcIrCL3NqY75PJjM-6" value="if (array1[i].length &amp;lt;=3)" style="rhombus;whiteSpace=wrap;html=1;" vertex="1" parent="1">
          <mxGeometry x="385" y="360" width="150" height="80" as="geometry" />
        </mxCell>
        <mxCell id="yIZuLcIrCL3NqY75PJjM-9" value="" style="edgeStyle=orthogonalEdgeStyle;rounded=0;orthogonalLoop=1;jettySize=auto;html=1;" edge="1" parent="1" source="yIZuLcIrCL3NqY75PJjM-8" target="yIZuLcIrCL3NqY75PJjM-4">
          <mxGeometry relative="1" as="geometry" />
        </mxCell>
        <mxCell id="yIZuLcIrCL3NqY75PJjM-8" value="array2[count] = array1[i] &lt;br&gt;count++;" style="rounded=0;whiteSpace=wrap;html=1;" vertex="1" parent="1">
          <mxGeometry x="100" y="250" width="140" height="60" as="geometry" />
        </mxCell>
        <mxCell id="yIZuLcIrCL3NqY75PJjM-12" value="Yes" style="text;html=1;align=center;verticalAlign=middle;resizable=0;points=[];autosize=1;strokeColor=none;fillColor=none;" vertex="1" parent="1">
          <mxGeometry x="290" y="360" width="40" height="30" as="geometry" />
        </mxCell>
        <mxCell id="yIZuLcIrCL3NqY75PJjM-13" value="No" style="text;html=1;align=center;verticalAlign=middle;resizable=0;points=[];autosize=1;strokeColor=none;fillColor=none;" vertex="1" parent="1">
          <mxGeometry x="540" y="355" width="40" height="30" as="geometry" />
        </mxCell>
      </root>
    </mxGraphModel>
  </diagram>
</mxfile>
